<svg xmlns="http://www.w3.org/2000/svg" width="120" height="120" viewBox="0 0 120 120">
  <g id="Group_11236" data-name="Group 11236" transform="translate(2 -128)">
    <circle id="楕円形_30" data-name="楕円形 30" cx="11.04" cy="11.04" r="11.04" transform="translate(-2 176.96)" fill="#ffce4a"/>
    <path id="Path_132" data-name="Path 132" d="M283.056,167a8.258,8.258,0,0,0-8.257,6.272A8.258,8.258,0,0,0,266.543,167c-4.794,0-9,5.171-8.5,10.53.44,8.383,12.163,18.268,16.76,18.27s16.32-9.887,16.76-18.27C292.057,172.171,287.851,167,283.056,167Z" transform="translate(-216.8 6.6)" fill="#ed5757"/>
    <circle id="楕円形_30-2" data-name="楕円形 30" cx="11.04" cy="11.04" r="11.04" transform="translate(95.92 176.96)" fill="#ffce4a"/>
    <path id="Path_133" data-name="Path 133" d="M279.777,109.92a9.1,9.1,0,0,1-7.207-3.523,41.759,41.759,0,0,0-65.982,0,9.12,9.12,0,0,1-14.4-11.2,60,60,0,0,1,94.782,0,9.121,9.121,0,0,1-7.193,14.718Z" transform="translate(-181.579 56)" fill="#64b1ff"/>
    <path id="Path_134" data-name="Path 134" d="M239.579,280.92a59.649,59.649,0,0,1-47.391-23.2,9.12,9.12,0,1,1,14.4-11.2,41.759,41.759,0,0,0,65.982,0,9.12,9.12,0,0,1,14.4,11.2A59.647,59.647,0,0,1,239.579,280.92Z" transform="translate(-181.579 -32.92)" fill="#64b1ff"/>
  </g>
</svg>
